<svg xmlns="http://www.w3.org/2000/svg" viewBox="0 0 128 128" width="128" height="128">
  <!-- Dark background -->
  <rect width="128" height="128" rx="16" fill="#1b1f23"/>

  <!-- GitHub Invertocat — lower-right, behind MS logo -->
  <path transform="translate(40, 40) scale(0.166)"
        d="M256 0C114.6 0 0 114.6 0 256c0 113.1 73.3 209 175.1 242.9 12.8 2.4 17.5-5.5 17.5-12.3 0-6.1-.2-26.2-.3-47.3-71.2 15.5-86.3-30.1-86.3-30.1-11.6-29.5-28.4-37.4-28.4-37.4-23.2-15.9 1.8-15.6 1.8-15.6 25.7 1.8 39.2 26.4 39.2 26.4 22.8 39.1 59.9 27.8 74.5 21.3 2.3-16.5 8.9-27.8 16.2-34.2-56.8-6.5-116.6-28.4-116.6-126.5 0-27.9 10-50.8 26.4-68.7-2.6-6.5-11.4-32.5 2.5-67.8 0 0 21.5-6.9 70.4 26.2 20.4-5.7 42.3-8.5 64.1-8.6 21.7.1 43.6 2.9 64.1 8.6 48.8-33.2 70.2-26.2 70.2-26.2 14 35.3 5.2 61.3 2.6 67.8 16.4 17.9 26.3 40.8 26.3 68.7 0 98.3-59.8 120-116.8 126.3 9.2 7.9 17.4 23.5 17.4 47.4 0 34.2-.3 61.8-.3 70.2 0 6.8 4.6 14.8 17.6 12.3C438.7 465 512 369.1 512 256 512 114.6 397.4 0 256 0z"
        fill="rgba(255,255,255,0.3)"/>

  <!-- Microsoft 4-color squares — upper-left, on top -->
  <rect x="10" y="10" width="22" height="22" rx="2" fill="#F25022"/>
  <rect x="35" y="10" width="22" height="22" rx="2" fill="#7FBA00"/>
  <rect x="10" y="35" width="22" height="22" rx="2" fill="#00A4EF"/>
  <rect x="35" y="35" width="22" height="22" rx="2" fill="#FFB900"/>
</svg>
